<svg width="1440" height="760" viewBox="0 0 1440 760" fill="none" xmlns="http://www.w3.org/2000/svg">
<path d="M-185.5 643C-69.5 373.5 16.3086 546.548 81.8114 490.75C147.314 434.951 75.8113 421.666 145.814 341.954C215.817 262.242 257.819 363.21 339.823 180.758C421.826 -1.6939 595.834 -83.1774 801.842 115.217C897.32 199.123 939.848 175.444 1067.85 164.816C1195.86 154.188 1181.86 338.411 1387.87 267.556C1461.39 242.267 1491.23 230.597 1501.42 225.694C1479.09 228.645 1518.79 217.337 1501.42 225.694C1502.69 225.526 1504.17 225.311 1505.87 225.043C1738.37 188.451 1827.5 713.5 1827.5 713.5L-185.5 760L-185.5 643Z" fill="#F2D95C" fill-opacity="0.8"/>
<path d="M-185.5 643C-69.5 373.5 16.3086 546.548 81.8114 490.75C147.314 434.951 75.8113 421.666 145.814 341.954C215.817 262.242 257.819 363.21 339.823 180.758C421.826 -1.6939 595.834 -83.1774 801.842 115.217C897.32 199.123 939.848 175.444 1067.85 164.816C1195.86 154.188 1181.86 338.411 1387.87 267.556C1461.39 242.267 1491.23 230.597 1501.42 225.694C1479.09 228.645 1518.79 217.337 1501.42 225.694C1502.69 225.526 1504.17 225.311 1505.87 225.043C1738.37 188.451 1827.5 713.5 1827.5 713.5L-185.5 760L-185.5 643Z" fill="url(#paint0_linear)" fill-opacity="0.8"/>
<path d="M1728 248C1694.38 248 1666.14 249.148 1635.33 264C1612.38 275.066 1617.41 304.983 1615.56 326.667C1613.41 351.734 1594.91 368.614 1588 391.334C1582.79 408.45 1586.68 425.548 1572.44 439.778C1565.29 446.932 1550.68 450.773 1541.56 454C1526.98 459.155 1511.83 461.851 1497.11 466.445C1474.6 473.471 1449.78 482.39 1428.89 493.556C1417.47 499.66 1408 508.087 1408 520.889C1408 535.837 1404.65 546.132 1395.56 558.445C1383.37 574.951 1360.99 581.494 1352 600C1339.04 626.681 1351.74 650.721 1369.78 671.334C1396.47 701.835 1397.39 751.469 1381.11 786.889C1374.2 801.936 1378 823.337 1378 839.778C1378 860.549 1374.82 875.605 1366 894C1357.57 911.576 1352.76 932.094 1346.22 950.445C1342.4 961.183 1338 972.425 1338 984" stroke="white" stroke-opacity="0.5" stroke-width="3" stroke-linecap="round" stroke-linejoin="round"/>
<g filter="url(#filter0_f)">
<rect y="628" width="1493" height="209" fill="#F4A58F"/>
</g>
<defs>
<filter id="filter0_f" x="-90" y="538" width="1673" height="389" filterUnits="userSpaceOnUse" color-interpolation-filters="sRGB">
<feFlood flood-opacity="0" result="BackgroundImageFix"/>
<feBlend mode="normal" in="SourceGraphic" in2="BackgroundImageFix" result="shape"/>
<feGaussianBlur stdDeviation="45" result="effect1_foregroundBlur"/>
</filter>
<linearGradient id="paint0_linear" x1="789.843" y1="-97.7911" x2="776.662" y2="395.924" gradientUnits="userSpaceOnUse">
<stop stop-color="#F5E17D"/>
<stop offset="1" stop-color="#F4A58F"/>
</linearGradient>
</defs>
</svg>
