<svg width="1440" height="255" viewBox="0 0 1440 255" fill="none" xmlns="http://www.w3.org/2000/svg">
<path d="M1607.08 170.194C1616.24 375 1349.08 152.254 1232.55 85.3408C1116.01 18.4281 786.77 26.1852 620.876 49.9443C454.983 73.7034 232.342 -32 21.9291 49.9443C-129.583 108.95 -120.152 26.9144 -128.269 -8.43039C-152.178 -10.6827 -162.499 -13.6494 -156.178 -17.4534C-137.232 -28.8547 -131.425 -22.1706 -128.269 -8.43039C102.687 13.327 1601.59 -31.5607 1616.13 -31.9968C1616.2 -32.0053 1616.24 -32 1616.24 -32C1616.24 -32 1616.2 -31.999 1616.13 -31.9968C1614.65 -31.8169 1598.33 -25.4232 1607.08 170.194Z" fill="#F4A58F"/>
</svg>
