<svg width="1270" height="437" viewBox="0 0 1270 437" fill="none" xmlns="http://www.w3.org/2000/svg">
<path d="M1261.34 245.257C1227.92 339.924 1124.6 352.072 988.635 352.072C852.669 352.072 812 332.584 812 245.257C812 157.93 1032.45 -29.6068 1168.27 50.5507C1248.07 97.6432 1289.08 166.699 1261.34 245.257Z" fill="#F4A58F"/>
<path d="M1261.34 245.257C1227.92 339.924 1124.6 352.072 988.635 352.072C852.669 352.072 812 332.584 812 245.257C812 157.93 1032.45 -29.6068 1168.27 50.5507C1248.07 97.6432 1289.08 166.699 1261.34 245.257Z" fill="url(#paint0_linear)"/>
<path d="M449.343 241.243C415.917 328.832 312.601 340.072 176.635 340.072C40.669 340.072 0 322.041 0 241.243C0 160.445 220.453 -13.07 356.272 61.0944C436.066 104.666 477.081 168.559 449.343 241.243Z" fill="#F4A58F"/>
<path d="M449.343 241.243C415.917 328.832 312.601 340.072 176.635 340.072C40.669 340.072 0 322.041 0 241.243C0 160.445 220.453 -13.07 356.272 61.0944C436.066 104.666 477.081 168.559 449.343 241.243Z" fill="url(#paint1_linear)"/>
<path d="M270.853 325.937C201.374 352.643 156.327 276.19 136.536 205.478C123.382 158.483 195.955 69.0316 306.661 99.1226C394.128 122.897 406.515 6.91925 579.173 66.9587C751.832 126.998 744.008 -21.3674 904.703 5.22505C1065.4 31.8175 1194.62 221.52 1014.94 374.088C968.593 413.439 755.315 312.598 681.516 325.937C546.272 350.382 595.314 410.85 462.091 435.294C355.513 454.85 340.332 299.231 270.853 325.937Z" fill="#F4A58F"/>
<path d="M270.853 325.937C201.374 352.643 156.327 276.19 136.536 205.478C123.382 158.483 195.955 69.0316 306.661 99.1226C394.128 122.897 406.515 6.91925 579.173 66.9587C751.832 126.998 744.008 -21.3674 904.703 5.22505C1065.4 31.8175 1194.62 221.52 1014.94 374.088C968.593 413.439 755.315 312.598 681.516 325.937C546.272 350.382 595.314 410.85 462.091 435.294C355.513 454.85 340.332 299.231 270.853 325.937Z" fill="url(#paint2_linear)"/>
<path d="M211.264 17.6144C239.96 13.3363 259.408 40.0937 281.054 77.5859C302.7 115.078 304.363 129.071 282.8 141.52C261.238 153.969 179.836 119.914 178.005 71.0351C176.93 42.3189 187.451 21.1645 211.264 17.6144Z" fill="#F5E17D"/>
<path d="M211.264 17.6144C239.96 13.3363 259.408 40.0937 281.054 77.5859C302.7 115.078 304.363 129.071 282.8 141.52C261.238 153.969 179.836 119.914 178.005 71.0351C176.93 42.3189 187.451 21.1645 211.264 17.6144Z" fill="url(#paint3_linear)"/>
<path d="M1148.67 153.078C1125.27 142.226 1097.42 161.68 1063.31 190.302C1029.2 218.924 1022.09 231.168 1035.94 247.67C1049.78 264.171 1134.82 253.201 1156.19 209.463C1168.74 183.767 1168.08 162.083 1148.67 153.078Z" fill="#F5E17D"/>
<path d="M1148.67 153.078C1125.27 142.226 1097.42 161.68 1063.31 190.302C1029.2 218.924 1022.09 231.168 1035.94 247.67C1049.78 264.171 1134.82 253.201 1156.19 209.463C1168.74 183.767 1168.08 162.083 1148.67 153.078Z" fill="url(#paint4_linear)"/>
<defs>
<linearGradient id="paint0_linear" x1="613.5" y1="217" x2="1301.14" y2="338.236" gradientUnits="userSpaceOnUse">
<stop stop-color="#393762"/>
<stop offset="1" stop-color="#F4A58F"/>
</linearGradient>
<linearGradient id="paint1_linear" x1="7.98607e-07" y1="236.574" x2="488.306" y2="331.088" gradientUnits="userSpaceOnUse">
<stop offset="0.145432" stop-color="#F4A58F"/>
<stop offset="1" stop-color="#393762"/>
</linearGradient>
<linearGradient id="paint2_linear" x1="618" y1="368.06" x2="618" y2="23.2318" gradientUnits="userSpaceOnUse">
<stop stop-color="#F4A58F"/>
<stop offset="1" stop-color="#F5E17D"/>
</linearGradient>
<linearGradient id="paint3_linear" x1="281.555" y1="142.239" x2="221.448" y2="-122.519" gradientUnits="userSpaceOnUse">
<stop stop-color="#F4A58F"/>
<stop offset="0.494792" stop-color="#F5E17D"/>
</linearGradient>
<linearGradient id="paint4_linear" x1="1036.74" y1="248.623" x2="1173.01" y2="10.5369" gradientUnits="userSpaceOnUse">
<stop stop-color="#F4A58F"/>
<stop offset="0.447917" stop-color="#F5E17D"/>
</linearGradient>
</defs>
</svg>
