<svg width="1440" height="1024" viewBox="0 0 1440 1024" fill="none" xmlns="http://www.w3.org/2000/svg">
<g clip-path="url(#clip0)">
<rect width="1440" height="1024" fill="#F4A58F"/>
<rect width="1440" height="1024" fill="url(#paint0_linear)"/>
<path d="M1463 468C1429.38 468 1401.14 469.148 1370.33 484C1347.38 495.066 1352.41 524.982 1350.56 546.667C1348.41 571.733 1329.91 588.614 1323 611.333C1317.79 628.45 1321.67 645.547 1307.44 659.778C1300.29 666.932 1285.68 670.773 1276.56 674C1261.98 679.155 1246.83 681.85 1232.11 686.444C1209.6 693.471 1184.78 702.39 1163.89 713.556C1152.47 719.66 1143 728.087 1143 740.889C1143 755.837 1139.65 766.132 1130.56 778.444C1118.37 794.951 1095.99 801.494 1087 820C1074.04 846.68 1086.74 870.721 1104.78 891.333C1131.47 921.834 1132.39 971.469 1116.11 1006.89C1109.2 1021.94 1113 1043.34 1113 1059.78C1113 1080.55 1109.82 1095.6 1101 1114C1092.57 1131.58 1087.76 1152.09 1081.22 1170.44C1077.4 1181.18 1073 1192.42 1073 1204" stroke="white" stroke-opacity="0.5" stroke-width="3" stroke-linecap="round" stroke-linejoin="round"/>
<path d="M-12 678.037C-27.4302 651.311 -39.3991 628.284 -40.6752 596.37C-41.626 572.591 -13.4102 561.63 4.51821 549.314C25.2434 535.078 31.3716 511.932 47.8739 495.075C60.3063 482.375 76.8959 476.915 82.6884 458.487C85.6005 449.222 82.2204 435.686 80.828 426.82C78.604 412.659 73.9848 399.266 71.2064 385.266C66.957 363.853 63.2915 339.666 63.373 317.476C63.4176 305.344 66.3701 293.604 77.4569 287.203C90.4026 279.729 97.7796 271.917 104.269 258.533C112.97 240.59 108.365 219.528 120.267 203.13C137.425 179.487 164.074 177.564 190.203 181.596C228.867 187.561 272.273 163.475 295.478 132.827C305.336 119.808 325.615 112.13 339.854 103.91C357.842 93.5243 369.421 83.4681 381.304 67.2591C392.657 51.7725 408.214 37.6832 421.109 23.3142C428.654 14.906 436.37 5.78769 446.395 0" stroke="white" stroke-opacity="0.5" stroke-width="3" stroke-linecap="round" stroke-linejoin="round"/>
</g>
<defs>
<linearGradient id="paint0_linear" x1="720" y1="0" x2="720" y2="1024" gradientUnits="userSpaceOnUse">
<stop stop-color="#F5E17D"/>
<stop offset="1" stop-color="#F4A58F"/>
</linearGradient>
<clipPath id="clip0">
<rect width="1440" height="1024" fill="white"/>
</clipPath>
</defs>
</svg>
