<svg width="1440" height="1024" viewBox="0 0 1440 1024" fill="none" xmlns="http://www.w3.org/2000/svg">
<g clip-path="url(#clip0)">
<rect width="1440" height="1024" fill="#F4A58F"/>
<rect width="1440" height="1024" fill="url(#paint0_linear)"/>
<path d="M1463 468C1429.38 468 1401.14 469.148 1370.33 484C1347.38 495.066 1352.41 524.982 1350.56 546.667C1348.41 571.733 1329.91 588.614 1323 611.333C1317.79 628.45 1321.67 645.547 1307.44 659.778C1300.29 666.932 1285.68 670.773 1276.56 674C1261.98 679.155 1246.83 681.85 1232.11 686.444C1209.6 693.471 1184.78 702.39 1163.89 713.556C1152.47 719.66 1143 728.087 1143 740.889C1143 755.837 1139.65 766.132 1130.56 778.444C1118.37 794.951 1095.99 801.494 1087 820C1074.04 846.68 1086.74 870.721 1104.78 891.333C1131.47 921.834 1132.39 971.469 1116.11 1006.89C1109.2 1021.94 1113 1043.34 1113 1059.78C1113 1080.55 1109.82 1095.6 1101 1114C1092.57 1131.58 1087.76 1152.09 1081.22 1170.44C1077.4 1181.18 1073 1192.42 1073 1204" stroke="white" stroke-opacity="0.5" stroke-width="3" stroke-linecap="round" stroke-linejoin="round"/>
<path d="M390 0C356.381 0 328.137 1.14806 297.333 16C274.382 27.0659 279.409 56.9824 277.556 78.6667C275.413 103.733 256.915 120.614 250 143.333C244.791 160.45 248.675 177.547 234.444 191.778C227.29 198.932 212.678 202.773 203.556 206C188.984 211.155 173.833 213.85 159.111 218.444C136.595 225.471 111.779 234.39 90.8889 245.556C79.4672 251.66 70 260.087 70 272.889C70 287.837 66.6478 298.132 57.5556 310.444C45.3664 326.951 22.9886 333.494 14 352C1.04095 378.68 13.7422 402.721 31.7778 423.333C58.4662 453.834 59.385 503.469 43.1111 538.889C36.1978 553.936 40 575.337 40 591.778C40 612.549 36.8197 627.605 28 646C19.5734 663.575 14.7552 684.093 8.22222 702.444C4.39938 713.183 0 724.425 0 736" stroke="white" stroke-opacity="0.5" stroke-width="3" stroke-linecap="round" stroke-linejoin="round"/>
</g>
<defs>
<linearGradient id="paint0_linear" x1="720" y1="0" x2="720" y2="1024" gradientUnits="userSpaceOnUse">
<stop stop-color="#F4A58F"/>
<stop offset="1" stop-color="#F5E17D"/>
</linearGradient>
<clipPath id="clip0">
<rect width="1440" height="1024" fill="white"/>
</clipPath>
</defs>
</svg>
