<svg width="1440" height="1024" viewBox="0 0 1440 1024" fill="none" xmlns="http://www.w3.org/2000/svg">
<g clip-path="url(#clip0)">
<path d="M1052 132C1100 103.2 1130.67 21.3333 1140 -16H1466V940C1469.33 946 1458.8 945.2 1390 894C1304 830 1256 892 1184 852C1112 812 1114 766 1124 710C1134 654 1128 594 1088 520C1048 446 992 446 944 420C896 394 908 320 926 254C944 188 992 168 1052 132Z" fill="#F5E17D"/>
<path d="M1052 132C1100 103.2 1130.67 21.3333 1140 -16H1466V940C1469.33 946 1458.8 945.2 1390 894C1304 830 1256 892 1184 852C1112 812 1114 766 1124 710C1134 654 1128 594 1088 520C1048 446 992 446 944 420C896 394 908 320 926 254C944 188 992 168 1052 132Z" fill="url(#paint0_linear)"/>
<path d="M1527.6 892.8C1528.93 896.267 1529.6 899.467 1529.6 902.4C1529.6 909.333 1527.33 915.067 1522.8 919.6C1518.27 923.867 1513.07 926 1507.2 926C1502.4 926 1498 924.533 1494 921.6C1490.27 918.667 1487.33 914.667 1485.2 909.6L1464.4 861.2H1345.2L1324.4 910C1322.53 915.067 1319.6 919.067 1315.6 922C1311.87 924.667 1307.73 926 1303.2 926C1296.27 926 1290.93 924.133 1287.2 920.4C1283.73 916.667 1282 911.6 1282 905.2C1282 902.8 1282.4 900.267 1283.2 897.6L1382.8 658.4C1384.93 653.067 1388.13 648.933 1392.4 646C1396.67 643.067 1401.47 641.867 1406.8 642.4C1411.6 642.4 1416 643.867 1420 646.8C1424.27 649.467 1427.33 653.333 1429.2 658.4L1527.6 892.8ZM1444.8 815.2L1404.4 721.6L1364.8 815.2H1444.8Z" fill="white" fill-opacity="0.85"/>
</g>
<defs>
<linearGradient id="paint0_linear" x1="1188.37" y1="-16" x2="1188.37" y2="942.544" gradientUnits="userSpaceOnUse">
<stop stop-color="#F4A58F"/>
<stop offset="1" stop-color="white" stop-opacity="0"/>
</linearGradient>
<clipPath id="clip0">
<rect width="1440" height="1024" fill="white"/>
</clipPath>
</defs>
</svg>
