<svg width="1440" height="578" viewBox="0 0 1440 578" fill="none" xmlns="http://www.w3.org/2000/svg">
<path d="M22.4263 138.45C-146.025 -31.517 -218.838 28.5154 -235 0L-55.0515 578H1511V203.735C1506.5 181.973 1479.71 138.45 1408.53 138.45C1319.55 138.45 1284.56 278.588 1116.11 268.458C947.661 258.327 1009.64 203.735 912.172 203.735C712.617 203.735 690.235 120.601 628.253 88.9231C503.788 25.3108 530.781 148.58 361.829 138.45C192.877 128.319 240.796 358.783 22.4263 138.45Z" fill="#F4A58F"/>
<path d="M22.4263 138.45C-146.025 -31.517 -218.838 28.5154 -235 0L-55.0515 578H1511V203.735C1506.5 181.973 1479.71 138.45 1408.53 138.45C1319.55 138.45 1284.56 278.588 1116.11 268.458C947.661 258.327 1009.64 203.735 912.172 203.735C712.617 203.735 690.235 120.601 628.253 88.9231C503.788 25.3108 530.781 148.58 361.829 138.45C192.877 128.319 240.796 358.783 22.4263 138.45Z" fill="url(#paint0_linear)"/>
<defs>
<linearGradient id="paint0_linear" x1="727.974" y1="-21.3866" x2="727.974" y2="578" gradientUnits="userSpaceOnUse">
<stop stop-color="#F5E17D"/>
<stop offset="1" stop-color="#F4A58F"/>
</linearGradient>
</defs>
</svg>
