<svg width="202" height="282" viewBox="0 0 202 282" fill="none" xmlns="http://www.w3.org/2000/svg">
<path d="M338.8 0.799996C345.2 0.799996 351.067 3.33333 356.4 8.39999C362 13.2 364.8 19.3333 364.8 26.8C364.8 29.2 364.4 31.8667 363.6 34.8L284.8 266.8C283.2 271.333 280.4 274.933 276.4 277.6C272.4 280.267 268 281.733 263.2 282C258.4 282 253.867 280.667 249.6 278C245.333 275.333 242 271.467 239.6 266.4L182.8 137.2L125.6 266.4C123.2 271.467 119.867 275.333 115.6 278C111.333 280.667 106.8 282 102 282C97.2 281.733 92.8 280.267 88.8 277.6C84.8 274.933 82 271.333 80.4 266.8L1.6 34.8C0.8 31.8667 0.4 29.2 0.4 26.8C0.4 19.3333 3.06667 13.2 8.4 8.39999C14 3.33333 20.1333 0.799996 26.8 0.799996C32.1333 0.799996 36.9333 2.26666 41.2 5.19999C45.4667 7.86665 48.4 11.6 50 16.4L109.6 197.2L161.6 72.4C163.733 67.6 166.8 63.8666 170.8 61.2C174.8 58.2667 179.333 56.9333 184.4 57.2C189.467 56.9333 193.867 58.2667 197.6 61.2C201.6 63.8666 204.667 67.6 206.8 72.4L256 196L315.2 16.4C316.8 11.6 319.733 7.86665 324 5.19999C328.533 2.26666 333.467 0.799996 338.8 0.799996Z" fill="#D1D1D1" fill-opacity="0.85"/>
</svg>
