<svg width="171" height="282" viewBox="0 0 171 282" fill="none" xmlns="http://www.w3.org/2000/svg">
<path d="M170.4 25.6C170.4 30.9333 168.933 35.8666 166 40.4L82.4 160V257.6C82.4 264.533 80.1333 270.4 75.6 275.2C71.0667 279.733 65.6 282 59.2 282C52.5333 282 46.8 279.733 42 275.2C37.4667 270.4 35.2 264.533 35.2 257.6V154.4L-48 44C-52.8 37.6 -55.2 31.3333 -55.2 25.2C-55.2 18.2667 -52.5333 12.5333 -47.2 7.99998C-41.6 3.19999 -35.7333 0.799996 -29.6 0.799996C-22.1333 0.799996 -15.6 4.53333 -10 12L60.4 109.2L126.4 12.8C132 4.79999 138.667 0.799996 146.4 0.799996C152.8 0.799996 158.4 3.19999 163.2 7.99998C168 12.8 170.4 18.6666 170.4 25.6Z" fill="#D1D1D1" fill-opacity="0.85"/>
</svg>
