<svg width="241" height="197" viewBox="0 0 241 197" fill="none" xmlns="http://www.w3.org/2000/svg">
<path d="M74.7554 36.3156C94.4447 19.6444 121.83 17.737 138.661 36.1636C146.492 44.7365 142.413 60.9411 149.931 63.6772C159.328 67.0974 212.296 73.6063 219.634 106.074C226.972 138.542 184.934 148.782 162.382 140.573C139.829 132.365 123.758 164.826 94.1988 158.324C64.6399 151.822 26.3681 140.021 19.7143 105.673C13.0604 71.3263 43.4691 93.0359 47.5734 81.7596C51.6776 70.4833 50.1438 57.1547 74.7554 36.3156Z" fill="#555555" fill-opacity="0.1"/>
<path d="M34.8515 36.9985V154.614H208.714V36.9985H34.8515ZM200.87 146.509H42.6955V45.1036H200.87V146.509Z" fill="#0F303F"/>
<path d="M200.87 45.104H42.6954V61.6347H200.87V45.104Z" fill="#2C5871"/>
<path d="M172.811 49.7256H165.549V57.0161H172.811V49.7256Z" fill="#FDC63A"/>
<path d="M183.575 49.7256H176.311V57.0161H183.575V49.7256Z" fill="#C1D64B"/>
<path d="M194.335 49.7256H187.073V57.0161H194.335V49.7256Z" fill="#FD692B"/>
<path d="M121.783 61.6348H42.6954V146.509H121.783V61.6348Z" fill="#EFC33B"/>
<path d="M200.87 61.6348H121.783V146.509H200.87V61.6348Z" fill="#E5B325"/>
<path d="M86.056 106.239V106.432L104.503 112.946V121.675L76.9435 109.899V102.612L104.503 90.8677V99.5961L86.056 106.239Z" fill="white"/>
<path d="M117.197 127.901H108.118L125.189 77.1665H134.272L117.197 127.901Z" fill="white"/>
<path d="M157.481 106.593V106.401L138.746 99.7891V91.1562L166.622 102.902V110.187L138.746 121.963V113.292L157.481 106.593Z" fill="white"/>
</svg>
