<svg width="246" height="197" viewBox="0 0 246 197" fill="none" xmlns="http://www.w3.org/2000/svg">
<path d="M75.7555 36.3156C95.4448 19.6444 122.83 17.737 139.661 36.1636C147.492 44.7365 143.413 60.9411 150.931 63.6772C160.328 67.0974 213.296 73.6063 220.634 106.074C227.972 138.542 185.934 148.782 163.382 140.573C140.829 132.365 124.758 164.826 95.1988 158.324C65.6399 151.822 27.3682 140.021 20.7143 105.673C14.0605 71.3263 44.4692 93.0359 48.5734 81.7596C52.6777 70.4833 51.1438 57.1547 75.7555 36.3156Z" fill="#555555" fill-opacity="0.1"/>
<path d="M181.348 46.8935V134.94C181.348 136.608 180.088 137.954 178.555 137.954H57.1959C55.6561 137.954 54.4117 136.608 54.4117 134.94V46.8935C54.4117 45.226 55.6561 43.8657 57.1959 43.8657H178.561C180.099 43.8657 181.354 45.226 181.354 46.8935H181.348Z" fill="#96C4A8"/>
<path d="M181.348 134.944C181.348 136.61 180.097 137.964 178.561 137.964H57.1995C55.6616 137.964 54.4081 136.61 54.4081 134.944V46.897C54.4081 45.2313 55.6688 43.8764 57.1995 43.8764H178.564C180.102 43.8764 181.352 45.2313 181.352 46.897V134.944H181.348ZM178.564 36.5596H57.1995C51.9373 36.5596 47.6548 41.1955 47.6548 46.8916V134.938C47.6548 140.635 51.9355 145.269 57.1995 145.269H178.564C183.826 145.269 188.109 140.635 188.109 134.938V46.8916C188.109 41.1955 183.828 36.5596 178.564 36.5596V36.5596Z" fill="#606161"/>
<path d="M199.343 149.231H36.412C36.4642 148.135 37.3124 147.285 38.3155 147.285H197.439C198.466 147.285 199.291 148.133 199.343 149.231V149.231Z" fill="#ECE0D3"/>
<path d="M75.5108 147.285H62.006V145.274H75.5108V147.285Z" fill="#4F4F4F"/>
<path d="M173.756 147.285H160.253V145.274H173.756V147.285Z" fill="#4F4F4F"/>
<path d="M199.357 149.362V150.44C199.357 155.017 195.936 158.731 191.7 158.731H44.0549C39.8264 158.731 36.3976 155.017 36.3976 150.44V149.362C36.3955 149.318 36.4004 149.274 36.412 149.231H199.343C199.354 149.274 199.359 149.318 199.357 149.362V149.362Z" fill="#606161"/>
<path d="M122.838 142.284H113.023C112.7 142.27 112.395 142.13 112.175 141.892C111.956 141.655 111.84 141.34 111.853 141.017V140.994C111.84 140.671 111.956 140.357 112.175 140.119C112.395 139.882 112.7 139.741 113.023 139.727H122.838C122.998 139.734 123.156 139.771 123.301 139.839C123.447 139.906 123.578 140.001 123.686 140.119C123.795 140.236 123.879 140.374 123.935 140.524C123.99 140.674 124.015 140.834 124.009 140.994V141.017C124.015 141.177 123.99 141.337 123.935 141.487C123.879 141.637 123.795 141.775 123.686 141.893C123.578 142.01 123.447 142.105 123.301 142.172C123.156 142.24 122.998 142.278 122.838 142.284V142.284Z" fill="#4F4F4F"/>
<path d="M136.735 43.8657H149.565L102.409 137.957H57.1959C55.6561 137.957 54.4117 136.611 54.4117 134.944V117.795L136.735 43.8657Z" fill="#C7DDCF"/>
</svg>
