<svg width="233" height="285" viewBox="0 0 233 285" fill="none" xmlns="http://www.w3.org/2000/svg">
<path d="M68.7555 84.3156C88.4448 67.6444 115.83 65.737 132.661 84.1636C140.492 92.7365 136.413 108.941 143.931 111.677C153.328 115.097 206.296 121.606 213.634 154.074C220.972 186.542 178.934 196.782 156.382 188.573C133.829 180.365 117.758 212.826 88.1988 206.324C58.6399 199.822 20.3682 188.021 13.7143 153.673C7.06046 119.326 37.4692 141.036 41.5734 129.76C45.6777 118.483 44.1438 105.155 68.7555 84.3156Z" fill="#555555" fill-opacity="0.1"/>
<path d="M123.73 161.086C124.236 161.086 124.646 160.678 124.646 160.174C124.646 159.67 124.236 159.262 123.73 159.262C123.224 159.262 122.814 159.67 122.814 160.174C122.814 160.678 123.224 161.086 123.73 161.086Z" fill="white"/>
<path d="M180.745 179.133L153.811 139.909C153.153 138.943 152.393 138.049 151.545 137.242L151.322 82.5124C153.025 82.2641 154.341 80.401 154.333 78.1498V77.0252C154.333 74.6112 152.794 72.6667 150.918 72.6793L143.184 72.7314V209.765L170.139 209.586C182.374 209.504 188.845 190.931 180.745 179.133Z" fill="#ECE0D3"/>
<path d="M105.873 179.133L132.659 139.909C133.313 138.943 134.068 138.049 134.912 137.242L135.141 82.5041C133.449 82.2558 132.139 80.3927 132.147 78.1415V77.0169C132.147 74.603 133.677 72.6584 135.543 72.671L143.235 72.7231V209.765L116.431 209.586C104.255 209.504 97.8256 190.931 105.873 179.133Z" fill="white"/>
<path d="M176.672 181.323L157.62 152.838H128.592L110.047 180.42C102.754 190.679 107.766 206.5 118.852 206.5H167.357C178.445 206.508 183.428 191.613 176.672 181.323Z" fill="#DE6879"/>
<path d="M176.648 181.323L157.492 152.838H143.237V206.508H167.286C178.437 206.508 183.449 191.613 176.648 181.323Z" fill="#B75672"/>
<path d="M154.316 178.146C156.535 178.146 158.335 176.355 158.335 174.147C158.335 171.938 156.535 170.147 154.316 170.147C152.097 170.147 150.297 171.938 150.297 174.147C150.297 176.355 152.097 178.146 154.316 178.146Z" fill="#DE6879"/>
<path d="M138.686 165.008C140.279 165.008 141.57 163.723 141.57 162.137C141.57 160.551 140.279 159.266 138.686 159.266C137.092 159.266 135.801 160.551 135.801 162.137C135.801 163.723 137.092 165.008 138.686 165.008Z" fill="#B75672"/>
<path d="M127.726 171.563C128.719 171.563 129.525 170.762 129.525 169.773C129.525 168.784 128.719 167.983 127.726 167.983C126.732 167.983 125.927 168.784 125.927 169.773C125.927 170.762 126.732 171.563 127.726 171.563Z" fill="#B75672"/>
<path d="M141.939 147.921C143.917 147.921 145.52 146.325 145.52 144.357C145.52 142.389 143.917 140.793 141.939 140.793C139.962 140.793 138.359 142.389 138.359 144.357C138.359 146.325 139.962 147.921 141.939 147.921Z" fill="#B75672"/>
<path d="M143.646 123.245C144.155 123.245 144.568 122.834 144.568 122.327C144.568 121.82 144.155 121.409 143.646 121.409C143.136 121.409 142.723 121.82 142.723 122.327C142.723 122.834 143.136 123.245 143.646 123.245Z" fill="#B75672"/>
<path d="M139.78 115.498C140.732 115.498 141.503 114.73 141.503 113.783C141.503 112.836 140.732 112.068 139.78 112.068C138.828 112.068 138.057 112.836 138.057 113.783C138.057 114.73 138.828 115.498 139.78 115.498Z" fill="#B75672"/>
<path d="M172.246 183.249C172.018 183.25 171.793 183.194 171.591 183.087C171.389 182.981 171.217 182.826 171.089 182.638L157.173 162.035C157.06 161.885 156.979 161.713 156.934 161.53C156.89 161.348 156.883 161.158 156.914 160.973C156.946 160.788 157.015 160.611 157.117 160.453C157.219 160.295 157.353 160.16 157.509 160.055C157.666 159.95 157.842 159.878 158.028 159.843C158.213 159.808 158.404 159.811 158.588 159.851C158.772 159.892 158.946 159.969 159.099 160.079C159.253 160.188 159.382 160.328 159.479 160.489L173.403 181.098C173.544 181.306 173.625 181.549 173.638 181.799C173.65 182.05 173.595 182.299 173.476 182.521C173.358 182.742 173.181 182.927 172.966 183.057C172.75 183.186 172.502 183.255 172.25 183.255L172.246 183.249Z" fill="white"/>
<path d="M162.789 186.788C163.669 186.788 164.383 186.078 164.383 185.202C164.383 184.327 163.669 183.617 162.789 183.617C161.91 183.617 161.196 184.327 161.196 185.202C161.196 186.078 161.91 186.788 162.789 186.788Z" fill="white"/>
<path d="M169.73 211.351H116.483C111.15 211.351 106.4 208.194 103.454 202.69C99.4062 195.127 99.8213 185.404 104.486 178.5L131.109 139.087C131.696 138.216 132.356 137.396 133.082 136.637V83.6931C131.296 82.7792 130.07 80.6532 130.07 78.2163V77.0917C130.07 73.8078 132.3 71.1372 135.042 71.1372H151.169C153.911 71.1372 156.142 73.8078 156.142 77.0917V78.2163C156.142 80.6532 154.916 82.7792 153.132 83.6931V136.637C153.858 137.396 154.518 138.216 155.104 139.087L181.728 178.5C186.392 185.404 186.807 195.127 182.759 202.69C179.814 208.194 175.066 211.351 169.73 211.351ZM135.042 74.3085C134.204 74.3085 133.256 75.4518 133.256 77.0917V78.2163C133.256 79.7874 134.107 80.8785 134.895 80.9891L136.266 81.1811V137.964L135.77 138.431C135.01 139.166 134.33 139.979 133.742 140.856L107.125 180.263C102.475 187.148 103.352 195.734 106.261 201.192C108.636 205.628 112.36 208.173 116.477 208.173H169.73C173.848 208.173 177.573 205.63 179.946 201.192C182.868 195.74 183.734 187.148 179.084 180.263L152.461 140.85C151.873 139.973 151.193 139.16 150.434 138.425L149.947 137.958V81.1811L151.318 80.9891C152.106 80.8785 152.958 79.7874 152.958 78.2163V77.0917C152.958 75.4518 152.016 74.3085 151.171 74.3085H135.042Z" fill="#555555"/>
<path d="M44.9848 185.419L71.7679 155.227C72.4432 154.465 73.1987 153.777 74.0214 153.176L74.2416 111.046C73.4144 110.951 72.6515 110.556 72.0991 109.936C71.5466 109.316 71.2436 108.515 71.248 107.687V106.821C71.2546 105.93 71.6159 105.079 72.2525 104.453C72.8892 103.827 73.7492 103.478 74.6441 103.482L82.3356 103.522V209.016L55.5316 208.876C43.3665 208.797 36.9306 194.501 44.9848 185.419Z" fill="white"/>
<path d="M119.674 185.419L92.6895 155.227C92.0085 154.465 91.2474 153.777 90.4191 153.176L90.1969 111.037C91.0275 110.946 91.7949 110.553 92.3517 109.933C92.9085 109.313 93.2155 108.51 93.2136 107.678V106.812C93.2036 105.919 92.8378 105.065 92.1964 104.439C91.5551 103.814 90.6905 103.466 89.7923 103.474L82.0358 103.514V209.008L109.039 208.868C121.305 208.797 127.787 194.501 119.674 185.419Z" fill="#ECE0D3"/>
<path d="M116.722 189.55L95.7816 165.868H67.724L48.1168 188.584C43.0143 195.163 47.5948 205.809 58.3093 205.809H105.194C115.909 205.809 120.548 195.899 116.722 189.55Z" fill="#EFC33B"/>
<path d="M116.72 189.55L95.748 165.868H82.04V205.809H105.173C115.907 205.809 120.552 195.899 116.72 189.55Z" fill="#E0AC19"/>
<path d="M78.321 173.36C79.7335 173.36 80.8786 172.22 80.8786 170.814C80.8786 169.409 79.7335 168.269 78.321 168.269C76.9085 168.269 75.7635 169.409 75.7635 170.814C75.7635 172.22 76.9085 173.36 78.321 173.36Z" fill="#E0AC19"/>
<path d="M88.4737 166.788C89.8862 166.788 91.0313 165.648 91.0313 164.242C91.0313 162.836 89.8862 161.697 88.4737 161.697C87.0612 161.697 85.9162 162.836 85.9162 164.242C85.9162 165.648 87.0612 166.788 88.4737 166.788Z" fill="#EFC33B"/>
<path d="M82.2622 151.415C83.2139 151.415 83.9854 150.647 83.9854 149.7C83.9854 148.753 83.2139 147.985 82.2622 147.985C81.3105 147.985 80.539 148.753 80.539 149.7C80.539 150.647 81.3105 151.415 82.2622 151.415Z" fill="#E0AC19"/>
<path d="M85.9937 142.252C86.9454 142.252 87.7169 141.484 87.7169 140.537C87.7169 139.59 86.9454 138.822 85.9937 138.822C85.042 138.822 84.2705 139.59 84.2705 140.537C84.2705 141.484 85.042 142.252 85.9937 142.252Z" fill="#E0AC19"/>
<path d="M79.256 131.175C80.2077 131.175 80.9792 130.407 80.9792 129.46C80.9792 128.513 80.2077 127.745 79.256 127.745C78.3043 127.745 77.5328 128.513 77.5328 129.46C77.5328 130.407 78.3043 131.175 79.256 131.175Z" fill="#E0AC19"/>
<path d="M110.012 189.045C109.812 189.044 109.616 189.001 109.435 188.918C109.254 188.835 109.093 188.714 108.963 188.563L95.3959 172.868C95.2767 172.73 95.1859 172.57 95.1288 172.397C95.0718 172.224 95.0494 172.042 95.0632 171.86C95.0769 171.679 95.1264 171.502 95.2088 171.339C95.2913 171.177 95.405 171.032 95.5437 170.914C95.6823 170.795 95.843 170.705 96.0167 170.648C96.1904 170.591 96.3736 170.569 96.5559 170.583C96.7382 170.596 96.916 170.645 97.0792 170.727C97.2424 170.81 97.3877 170.923 97.5069 171.061L111.074 186.757C111.25 186.957 111.364 187.203 111.402 187.466C111.441 187.729 111.402 187.998 111.292 188.24C111.181 188.481 111.003 188.687 110.779 188.831C110.555 188.975 110.293 189.051 110.026 189.052L110.012 189.045Z" fill="white"/>
<path d="M100.893 192.448C101.772 192.448 102.486 191.738 102.486 190.862C102.486 189.987 101.772 189.277 100.893 189.277C100.013 189.277 99.2993 189.987 99.2993 190.862C99.2993 191.738 100.013 192.448 100.893 192.448Z" fill="white"/>
<path d="M108.666 210.585H55.4184C52.3893 210.588 49.4234 209.722 46.8757 208.091C44.3279 206.46 42.3061 204.134 41.052 201.39C39.798 198.645 39.3647 195.6 39.8042 192.617C40.2436 189.634 41.5371 186.84 43.53 184.57L70.1537 154.23C70.7204 153.584 71.3388 152.984 72.0027 152.437V112.287C71.1079 111.906 70.3455 111.271 69.8103 110.462C69.2751 109.653 68.9906 108.705 68.9923 107.737V106.871C68.994 105.559 69.5184 104.301 70.4506 103.373C71.3828 102.445 72.6466 101.924 73.9649 101.922H90.0921C91.4104 101.924 92.6742 102.445 93.6064 103.373C94.5386 104.301 95.063 105.559 95.0647 106.871V107.737C95.0664 108.705 94.7819 109.653 94.2467 110.462C93.7114 111.271 92.949 111.906 92.0543 112.287V152.439C92.719 152.986 93.3381 153.585 93.9054 154.232L120.529 184.572C122.521 186.842 123.815 189.634 124.254 192.616C124.694 195.598 124.262 198.642 123.01 201.386C121.757 204.13 119.737 206.457 117.191 208.088C114.645 209.72 111.681 210.587 108.653 210.587L108.666 210.585ZM73.9753 105.093C73.5018 105.094 73.0478 105.281 72.713 105.614C72.3782 105.948 72.1898 106.399 72.1893 106.871V107.737C72.1882 108.174 72.35 108.597 72.6433 108.923C72.9367 109.25 73.341 109.456 73.7783 109.504L75.1996 109.656V154.008L74.556 154.484C73.8276 155.023 73.1592 155.638 72.5624 156.318L45.9387 186.658C44.3483 188.469 43.3156 190.697 42.9641 193.077C42.6126 195.456 42.9572 197.886 43.9567 200.075C44.9563 202.265 46.5684 204.122 48.6002 205.423C50.6321 206.725 52.9978 207.417 55.4142 207.416H108.662C111.078 207.417 113.444 206.725 115.476 205.423C117.507 204.122 119.12 202.265 120.119 200.075C121.119 197.886 121.463 195.456 121.112 193.077C120.76 190.697 119.728 188.469 118.137 186.658L91.5134 156.318C90.9165 155.638 90.2482 155.023 89.5198 154.484L88.8762 154.008V109.656L90.2976 109.504C90.7349 109.456 91.1392 109.25 91.4325 108.923C91.7259 108.597 91.8876 108.174 91.8866 107.737V106.871C91.886 106.399 91.6977 105.948 91.3628 105.614C91.028 105.281 90.574 105.094 90.1005 105.093H73.9753Z" fill="#555555"/>
</svg>
