<svg width="235" height="483" viewBox="0 0 235 483" fill="none" xmlns="http://www.w3.org/2000/svg">
<path d="M70.7554 180.316C90.4447 163.644 117.83 161.737 134.661 180.164C142.492 188.737 138.413 204.941 145.931 207.677C155.328 211.097 208.296 217.606 215.634 250.074C222.972 282.542 180.934 292.782 158.382 284.573C135.829 276.365 119.758 308.826 90.1988 302.324C60.6399 295.822 22.3681 284.021 15.7143 249.673C9.06043 215.326 39.4691 237.036 43.5734 225.76C47.6776 214.483 46.1438 201.155 70.7554 180.316Z" fill="#555555" fill-opacity="0.1"/>
<path fill-rule="evenodd" clip-rule="evenodd" d="M33.2825 238.056L17.6556 252.288L19.4915 266.859L26.211 275.487L67.9052 276.346L169.631 277.7L204.257 270.586L208.853 269.232L199.661 243.141L169.94 233.99L33.2825 238.056Z" fill="#23211E"/>
<path fill-rule="evenodd" clip-rule="evenodd" d="M103.449 203.808C103.412 203.808 83.3026 211.799 67.079 221.526C67.079 221.526 61.7762 226.2 63.1563 229.563L68.2112 233.806L110.496 208.224L106.665 204.946L103.449 203.808Z" fill="#404041"/>
<path fill-rule="evenodd" clip-rule="evenodd" d="M179.515 206.64C179.515 206.64 202.724 216.731 208.165 221.243L213.452 223.191L214.37 226.727L209.698 230.616L178.594 210.091L179.515 206.64Z" fill="#404041"/>
<path d="M48.0429 286.433C55.5968 286.388 61.6894 279.276 61.6512 270.547C61.613 261.819 55.4583 254.778 47.9044 254.822C40.3505 254.867 34.2579 261.979 34.2961 270.707C34.3343 279.436 40.489 286.477 48.0429 286.433Z" fill="#58595B"/>
<path fill-rule="evenodd" clip-rule="evenodd" d="M47.8568 254.912L50.8769 265.721L60.7022 265.696L52.7404 272.354L55.7972 283.149L47.8568 276.456L39.9164 283.149L42.9732 272.354L35.0114 265.696L44.8367 265.721L47.8568 254.912Z" fill="white"/>
<path fill-rule="evenodd" clip-rule="evenodd" d="M35.1888 285.302C37.7184 288.196 40.9338 290.159 44.4284 290.941C47.9231 291.723 51.54 291.291 54.8218 289.698C58.1036 288.105 60.903 285.423 62.8659 281.992C64.8289 278.56 65.8672 274.533 65.8497 270.42C65.8321 266.307 64.7595 262.292 62.7674 258.883C60.7753 255.474 57.9531 252.825 54.6579 251.269C51.3626 249.714 47.7422 249.322 44.2544 250.144C40.7666 250.966 37.5681 252.965 35.0633 255.888C33.4 257.828 32.0838 260.129 31.1899 262.658C30.2959 265.186 29.8418 267.894 29.8535 270.625C29.8651 273.357 30.3423 276.059 31.2577 278.577C32.1732 281.095 33.509 283.381 35.1888 285.302V285.302ZM57.168 281.183C55.3436 283.313 53.0135 284.77 50.4726 285.369C47.9316 285.969 45.2938 285.684 42.8929 284.551C40.492 283.418 38.4357 281.488 36.9841 279.005C35.5326 276.521 34.751 273.596 34.7381 270.599C34.7253 267.603 35.4818 264.669 36.912 262.169C38.3422 259.669 40.3818 257.715 42.7729 256.555C45.164 255.395 47.7992 255.08 50.3452 255.65C52.8912 256.221 55.2336 257.651 57.0762 259.759C59.5464 262.585 60.9443 266.429 60.9627 270.446C60.981 274.463 59.6183 278.324 57.1742 281.18L57.168 281.183Z" fill="#363638"/>
<path d="M47.8639 274.598C49.8107 274.587 51.3812 272.754 51.3717 270.505C51.3621 268.255 49.7762 266.44 47.8295 266.451C45.8827 266.462 44.3122 268.295 44.3217 270.544C44.3312 272.794 45.9171 274.609 47.8639 274.598Z" fill="#9DA0A5"/>
<path fill-rule="evenodd" clip-rule="evenodd" d="M38.5547 259.862C40.3791 257.732 42.7092 256.275 45.2501 255.676C47.7911 255.076 50.4289 255.361 52.8298 256.494C55.2307 257.627 57.287 259.557 58.7386 262.04C60.1901 264.524 60.9717 267.449 60.9846 270.446C60.9974 273.442 60.2409 276.376 58.8107 278.876C57.3805 281.376 55.3409 283.33 52.9498 284.49C50.5587 285.65 47.9235 285.965 45.3775 285.395C42.8315 284.824 40.4891 283.394 38.6465 281.286C36.1762 278.458 34.7788 274.613 34.7616 270.596C34.7444 266.578 36.1087 262.717 38.5547 259.862V259.862ZM47.8721 287.088C50.7104 287.088 53.485 286.115 55.845 284.293C58.205 282.471 60.0444 279.881 61.1306 276.851C62.2168 273.821 62.501 270.486 61.9472 267.269C61.3935 264.053 60.0267 261.098 58.0197 258.779C56.0127 256.459 53.4556 254.88 50.6718 254.24C47.888 253.6 45.0025 253.929 42.3802 255.184C39.7579 256.439 37.5166 258.564 35.9397 261.291C34.3628 264.019 33.5211 267.225 33.5211 270.505C33.5183 272.683 33.8869 274.841 34.6059 276.854C35.3249 278.868 36.3802 280.698 37.7114 282.24C39.0427 283.783 40.6239 285.007 42.3646 285.843C44.1054 286.679 45.9716 287.11 47.8567 287.113L47.8721 287.088Z" fill="white"/>
<path fill-rule="evenodd" clip-rule="evenodd" d="M46.5104 254.438C46.4768 254.013 44.8336 265.717 44.8336 265.717H51.1676C51.1676 265.717 49.4541 254.717 49.4877 254.381C49.5214 254.045 46.5104 254.438 46.5104 254.438Z" fill="white"/>
<path fill-rule="evenodd" clip-rule="evenodd" d="M34.5769 267.379C34.225 267.294 43.1446 272.386 43.1446 272.386L44.9468 265.604C44.9468 265.604 35.6356 264.306 35.3785 264.19C35.1215 264.073 34.5769 267.379 34.5769 267.379Z" fill="white"/>
<path fill-rule="evenodd" clip-rule="evenodd" d="M41.4095 284.284C41.2382 284.638 48.0373 276.261 48.0373 276.261L42.9426 272.301C42.9426 272.301 39.1666 282.23 38.9892 282.477C38.8117 282.725 41.4095 284.284 41.4095 284.284Z" fill="white"/>
<path fill-rule="evenodd" clip-rule="evenodd" d="M57.2476 282.435C57.4954 282.749 52.7495 272.269 52.7495 272.269L47.6946 276.646C47.6946 276.646 54.7538 284.245 54.9006 284.535C55.0475 284.825 57.2476 282.435 57.2476 282.435Z" fill="white"/>
<path fill-rule="evenodd" clip-rule="evenodd" d="M60.4574 264.129C60.7909 263.96 50.8126 265.791 50.8126 265.791L52.7648 272.615C52.7648 272.615 61.1398 267.375 61.4182 267.312C61.6967 267.248 60.4574 264.129 60.4574 264.129Z" fill="white"/>
<path d="M187.513 287.53C195.068 287.53 201.191 280.454 201.191 271.725C201.191 262.996 195.068 255.919 187.513 255.919C179.959 255.919 173.836 262.996 173.836 271.725C173.836 280.454 179.959 287.53 187.513 287.53Z" fill="#58595B"/>
<path fill-rule="evenodd" clip-rule="evenodd" d="M188.584 254.912L191.601 265.721L201.43 265.696L193.468 272.354L196.522 283.149L188.584 276.456L180.644 283.149L183.698 272.354L175.736 265.696L185.564 265.721L188.584 254.912Z" fill="white"/>
<path fill-rule="evenodd" clip-rule="evenodd" d="M175.92 285.302C178.449 288.196 181.665 290.159 185.159 290.941C188.654 291.723 192.271 291.291 195.553 289.698C198.834 288.105 201.634 285.423 203.597 281.992C205.56 278.56 206.598 274.533 206.58 270.42C206.563 266.307 205.49 262.292 203.498 258.883C201.506 255.474 198.684 252.825 195.389 251.269C192.093 249.714 188.473 249.322 184.985 250.144C181.497 250.966 178.299 252.965 175.794 255.888C174.131 257.828 172.814 260.129 171.921 262.658C171.027 265.186 170.573 267.894 170.584 270.625C170.596 273.357 171.073 276.059 171.988 278.577C172.904 281.095 174.24 283.381 175.92 285.302V285.302ZM197.899 281.183C196.074 283.313 193.744 284.77 191.203 285.369C188.662 285.969 186.025 285.684 183.624 284.551C181.223 283.418 179.166 281.488 177.715 279.005C176.263 276.521 175.482 273.596 175.469 270.599C175.456 267.603 176.213 264.669 177.643 262.169C179.073 259.669 181.113 257.715 183.504 256.555C185.895 255.395 188.53 255.08 191.076 255.65C193.622 256.221 195.964 257.651 197.807 259.759C200.276 262.586 201.673 266.431 201.69 270.448C201.708 274.464 200.344 278.325 197.899 281.18V281.183Z" fill="#363638"/>
<path d="M188.587 274.61C190.534 274.599 192.104 272.766 192.095 270.516C192.085 268.267 190.499 266.452 188.552 266.463C186.606 266.474 185.035 268.307 185.045 270.556C185.054 272.806 186.64 274.62 188.587 274.61Z" fill="#9DA0A5"/>
<path fill-rule="evenodd" clip-rule="evenodd" d="M179.267 259.862C181.092 257.732 183.422 256.275 185.963 255.676C188.504 255.076 191.141 255.361 193.542 256.494C195.943 257.627 197.999 259.557 199.451 262.04C200.903 264.524 201.684 267.449 201.697 270.446C201.71 273.442 200.953 276.376 199.523 278.876C198.093 281.376 196.053 283.33 193.662 284.49C191.271 285.65 188.636 285.965 186.09 285.395C183.544 284.824 181.201 283.394 179.359 281.286C176.889 278.458 175.491 274.613 175.474 270.596C175.457 266.578 176.821 262.717 179.267 259.862ZM188.584 287.088C191.423 287.088 194.197 286.115 196.557 284.293C198.917 282.471 200.757 279.881 201.843 276.851C202.929 273.821 203.213 270.486 202.66 267.269C202.106 264.053 200.739 261.098 198.732 258.779C196.725 256.459 194.168 254.88 191.384 254.24C188.6 253.6 185.715 253.929 183.093 255.184C180.47 256.439 178.229 258.564 176.652 261.291C175.075 264.019 174.234 267.225 174.234 270.505C174.231 272.684 174.6 274.844 175.32 276.858C176.04 278.873 177.096 280.704 178.429 282.247C179.762 283.789 181.345 285.013 183.088 285.848C184.83 286.683 186.698 287.113 188.584 287.113V287.088Z" fill="white"/>
<path fill-rule="evenodd" clip-rule="evenodd" d="M187.241 254.438C187.207 254.013 185.564 265.717 185.564 265.717H191.898C191.898 265.717 190.185 254.717 190.218 254.381C190.252 254.045 187.241 254.438 187.241 254.438Z" fill="white"/>
<path fill-rule="evenodd" clip-rule="evenodd" d="M175.304 267.379C174.953 267.294 183.872 272.386 183.872 272.386L185.674 265.604C185.674 265.604 176.363 264.306 176.106 264.19C175.849 264.073 175.304 267.379 175.304 267.379Z" fill="white"/>
<path fill-rule="evenodd" clip-rule="evenodd" d="M182.134 284.284C181.963 284.638 188.762 276.261 188.762 276.261L183.667 272.301C183.667 272.301 179.897 282.219 179.714 282.466C179.53 282.714 182.134 284.284 182.134 284.284Z" fill="white"/>
<path fill-rule="evenodd" clip-rule="evenodd" d="M197.975 282.435C198.223 282.749 193.48 272.269 193.48 272.269L188.419 276.646C188.419 276.646 195.478 284.245 195.625 284.535C195.772 284.825 197.975 282.435 197.975 282.435Z" fill="white"/>
<path fill-rule="evenodd" clip-rule="evenodd" d="M201.182 264.129C201.516 263.96 191.537 265.791 191.537 265.791L193.489 272.615C193.489 272.615 201.864 267.375 202.143 267.312C202.421 267.248 201.182 264.129 201.182 264.129Z" fill="white"/>
<path fill-rule="evenodd" clip-rule="evenodd" d="M6.36459 257.362C4.69389 251.747 6.46557 247.649 8.13627 243.098C10.6423 236.277 56.5316 223.467 67.9542 220.992C67.9542 220.992 63.2878 223.644 67.7247 228.417C67.7247 228.417 98.29 209.564 105.643 206.109L103.345 203.454C103.345 203.454 132.301 192.846 179.411 206.636V208.227L208.596 225.755C208.596 225.755 214.829 224.694 208.165 221.239C220.986 226.009 225.3 226.281 226.062 228.94L225.82 243.285V247.529C225.82 247.529 231.328 249.919 230.646 254.434C230.193 257.306 229.58 260.14 228.81 262.92L227.656 263.733L227.197 269.309C227.197 269.309 215.622 276.774 206.427 277.566C208.92 264.129 204.649 250.81 187.296 251.429C172.358 251.966 169.518 269.843 169.518 269.843L169.289 277.269L169.059 278.863L68.6335 276.742V270.109C68.6335 270.109 68.5202 252.242 47.6089 250.916C26.6976 249.59 27.2331 274.253 27.2331 274.253L26.7741 277.969C26.7741 277.969 10.7035 277.739 7.6987 270.544C7.70788 270.551 7.51511 260.548 6.36459 257.362Z" fill="#ECE0D3"/>
<path fill-rule="evenodd" clip-rule="evenodd" d="M73.7435 276.859L68.658 276.749V270.109C68.658 270.109 68.5447 252.242 47.6334 250.916C26.7221 249.59 27.2576 274.253 27.2576 274.253L26.7986 277.969C26.7986 277.969 10.728 277.739 7.7232 270.544C7.7232 270.544 7.66812 267.768 7.45087 264.678L21.1133 266.958C21.1133 266.958 23.2552 259.533 29.7789 252.553C42.2143 239.241 62.4158 242.829 71.6475 260.332C74.0495 264.883 75.1051 273.203 75.1051 273.203C75.1051 273.203 74.6615 274.656 73.7435 276.859Z" fill="#D8CBBF"/>
<path fill-rule="evenodd" clip-rule="evenodd" d="M225.82 247.536C225.82 247.536 231.328 249.926 230.646 254.441C230.194 257.313 229.58 260.148 228.81 262.927L227.656 263.734L227.197 269.31C227.197 269.31 215.622 276.774 206.427 277.566C208.153 264.893 204.649 250.81 187.296 251.429C172.358 251.966 169.518 269.844 169.518 269.844L169.374 274.476C165.501 272.902 163.062 271.785 163.062 271.785C166.78 254.7 177.287 239.891 194.175 245.124C202.048 247.564 206.754 255.332 206.754 255.332C210.028 254.842 213.246 253.949 216.356 252.67C219.603 251.196 222.765 249.481 225.82 247.536V247.536Z" fill="#D8CBBF"/>
<path fill-rule="evenodd" clip-rule="evenodd" d="M68.3642 270.374L68.8232 276.569L168.867 278.867L169.172 277.276L169.478 270.371L166.875 270.197L163.659 271.788L74.1872 271.612L73.2662 270.197L68.3642 270.374Z" fill="#D8CBBF"/>
<path fill-rule="evenodd" clip-rule="evenodd" d="M6.17181 256.676L7.43555 264.684C7.43555 264.684 19.7425 267.665 21.1133 266.958L20.1158 260.06C20.1158 260.06 7.70482 259.154 6.17181 256.676Z" fill="#BAACA0"/>
<path fill-rule="evenodd" clip-rule="evenodd" d="M10.0701 243.463C10.0701 243.463 11.4471 240.807 13.0566 239.612C13.0566 239.612 15.1251 239.478 18.6868 240.538C20.6564 241.14 22.6509 241.628 24.6628 241.999C24.6628 241.999 28.454 243.059 22.9401 245.05C17.4261 247.041 13.7604 246.91 11.6797 245.715C9.59892 244.52 10.0701 243.463 10.0701 243.463Z" fill="#FBF9F6"/>
<path fill-rule="evenodd" clip-rule="evenodd" d="M71.8892 232.844C71.8892 232.844 96.0929 213.192 110.496 208.234C110.496 208.234 117.503 205.052 133.399 204.999C137.141 217.951 136.514 215.755 139.843 230.365C128.335 230.754 119.229 231.073 119.229 231.073L71.8892 232.84V232.844ZM137.304 205.049L143.576 230.242C161.324 229.648 182.777 228.947 186.023 228.947C191.69 228.947 185.411 221.876 185.411 221.876C183.419 219.754 175.76 214.097 175.76 214.097C170.705 211.268 163.043 206.484 141.441 205.257C140.009 205.151 138.63 205.082 137.304 205.049Z" fill="#404041"/>
<path d="M121.814 239.965C125.019 239.965 127.616 239.46 127.616 238.837C127.616 238.214 125.019 237.709 121.814 237.709C118.61 237.709 116.013 238.214 116.013 238.837C116.013 239.46 118.61 239.965 121.814 239.965Z" fill="#58595B"/>
<path d="M176.74 237.31C179.944 237.31 182.541 236.805 182.541 236.182C182.541 235.559 179.944 235.054 176.74 235.054C173.535 235.054 170.938 235.559 170.938 236.182C170.938 236.805 173.535 237.31 176.74 237.31Z" fill="#58595B"/>
<path fill-rule="evenodd" clip-rule="evenodd" d="M225.983 233.866C225.983 233.866 219.951 233.707 216.962 234.679C213.972 235.652 214.765 241.642 217.124 243.459C218.731 244.697 224.404 243.813 225.784 243.459C225.784 243.463 227.133 237.232 225.983 233.866Z" fill="#CE3C3C"/>
<path fill-rule="evenodd" clip-rule="evenodd" d="M82.3112 234.927C80.2641 235.591 71.9076 234.973 71.4333 232.943C70.9284 230.821 78.1651 225.472 82.3479 225.928L82.3112 234.927Z" fill="#D8CBBF"/>
<path fill-rule="evenodd" clip-rule="evenodd" d="M8.24337 242.865C8.24337 242.865 9.2103 241.829 9.28374 245.117C9.35718 248.405 8.67176 255.824 7.66199 255.845C6.65223 255.866 5.84136 255.166 5.82606 254.827C5.36095 246.592 8.24337 242.865 8.24337 242.865Z" fill="url(#paint0_linear)"/>
<defs>
<linearGradient id="paint0_linear" x1="7.53045" y1="-711.517" x2="7.53045" y2="1210.08" gradientUnits="userSpaceOnUse">
<stop stop-color="white"/>
<stop offset="1" stop-color="#231F20"/>
</linearGradient>
</defs>
</svg>
