<svg width="234" height="239" viewBox="0 0 234 239" fill="none" xmlns="http://www.w3.org/2000/svg">
<path d="M69.3166 56.5993C89.0059 39.9281 116.391 38.0207 133.223 56.4473C141.054 65.0202 136.974 81.2248 144.492 83.9609C153.889 87.3811 206.857 93.89 214.195 126.358C221.533 158.826 179.496 169.065 156.943 160.857C134.39 152.648 118.319 185.109 88.7599 178.607C59.2011 172.106 20.9293 160.304 14.2755 125.957C7.62161 91.61 38.0303 113.32 42.1346 102.043C46.2388 90.767 44.705 77.4384 69.3166 56.5993Z" fill="#555555" fill-opacity="0.1"/>
<path d="M122.786 68.1885H80.4837L91.7638 180.825H122.786H153.809L165.09 68.1885H122.786Z" fill="#DE6879"/>
<path d="M158.903 157.317L166.547 86.7979H79.0268L86.6708 157.317H158.903Z" fill="#ECE0D3"/>
<path d="M174.31 68.1885H71.2625L73.4313 57.0469H171.056L174.31 68.1885Z" fill="#B77053"/>
<path d="M162.297 46.3931H83.2771V57.0449H162.297V46.3931Z" fill="#EFC33B"/>
<path d="M112.654 38.4956H93.608V46.2097H112.654V38.4956Z" fill="#DE6879"/>
<g style="mix-blend-mode:soft-light">
<path d="M143.692 71.3486H159.179L148.339 173.522H133.703L143.692 71.3486Z" fill="white"/>
</g>
<path d="M146.044 122.058C146.044 126.671 144.68 131.18 142.124 135.015C139.568 138.85 135.935 141.839 131.685 143.604C127.436 145.369 122.759 145.831 118.248 144.931C113.736 144.031 109.592 141.809 106.34 138.547C103.087 135.286 100.872 131.13 99.9749 126.606C99.0776 122.082 99.5383 117.392 101.299 113.131C103.059 108.869 106.04 105.227 109.865 102.664C113.69 100.102 118.186 98.7339 122.786 98.7339C125.841 98.7339 128.865 99.3372 131.687 100.509C134.509 101.682 137.073 103.4 139.233 105.566C141.393 107.731 143.106 110.303 144.274 113.133C145.443 115.962 146.045 118.995 146.044 122.058Z" fill="#EFC33B"/>
<path d="M120.178 136.472C120.913 136.229 121.566 135.785 122.064 135.191C123.835 133.135 124.714 129.305 123.657 126.737C122.919 124.938 121.347 123.74 120.152 122.27C117.472 118.977 115.9 114.708 117.613 110.533C117.945 109.713 118.354 108.926 118.834 108.184C116.784 108.981 115.021 110.382 113.778 112.201C112.535 114.021 111.869 116.175 111.867 118.38V125.855C111.868 128.302 112.688 130.678 114.194 132.602C115.701 134.527 117.808 135.89 120.178 136.472Z" fill="#B77053"/>
<path d="M124.445 107.569C122.003 108.525 120.342 111.228 120.282 113.868C120.221 116.683 121.481 118.821 123.353 120.826C126.469 124.165 128.113 127.475 127.017 132.181C126.597 133.991 125.929 135.425 125.081 136.54C127.52 136.013 129.706 134.664 131.274 132.718C132.842 130.771 133.698 128.345 133.698 125.842V118.375C133.698 115.762 132.764 113.236 131.067 111.254C129.37 109.272 127.021 107.965 124.445 107.569Z" fill="#B77053"/>
<g style="mix-blend-mode:multiply">
<path d="M138.226 173.086H107.202L96.6963 68.1885H80.4837L82.3472 86.7976H79.0268L86.6708 157.317H89.4101L91.7638 180.825H122.786H153.809L154.585 173.086H138.226Z" fill="#C2D0D8"/>
</g>
</svg>
